<?xml version="1.0" encoding="UTF-8" standalone="no"?>
<!-- Created with Inkscape (http://www.inkscape.org/) -->

<svg
   width="210mm"
   height="297mm"
   viewBox="0 0 210 297"
   version="1.1"
   id="svg3164"
   inkscape:version="1.2.2 (732a01da63, 2022-12-09)"
   sodipodi:docname="nebula-2.svg"
   xmlns:inkscape="http://www.inkscape.org/namespaces/inkscape"
   xmlns:sodipodi="http://sodipodi.sourceforge.net/DTD/sodipodi-0.dtd"
   xmlns="http://www.w3.org/2000/svg"
   xmlns:svg="http://www.w3.org/2000/svg">
  <sodipodi:namedview
     id="namedview3166"
     pagecolor="#ffffff"
     bordercolor="#000000"
     borderopacity="0.25"
     inkscape:showpageshadow="2"
     inkscape:pageopacity="0.0"
     inkscape:pagecheckerboard="0"
     inkscape:deskcolor="#d1d1d1"
     inkscape:document-units="mm"
     showgrid="false"
     inkscape:zoom="0.71624579"
     inkscape:cx="318.32648"
     inkscape:cy="561.95793"
     inkscape:window-width="1920"
     inkscape:window-height="991"
     inkscape:window-x="-9"
     inkscape:window-y="-9"
     inkscape:window-maximized="1"
     inkscape:current-layer="layer1" />
  <defs
     id="defs3161" />
  <g
     inkscape:label="Layer 1"
     inkscape:groupmode="layer"
     id="layer1">
    <path
       id="path3648"
       style="fill:#c6362f;fill-opacity:0.05;stroke-width:2;stroke-linecap:round;stroke-linejoin:round"
       d="M 140.00386 34.354492 A 27.335821 31.399254 0 0 0 114.40542 54.782186 A 39.156715 49.130596 0 0 0 104.54091 53.194169 A 39.156715 49.130596 0 0 0 102.51519 53.28512 A 40.819027 36.755596 0 0 0 83.669828 49.130851 A 40.819027 36.755596 0 0 0 42.850614 85.88623 A 40.819027 36.755596 0 0 0 53.078414 110.18707 A 41.188435 45.990673 0 0 0 35.831921 147.57652 A 41.188435 45.990673 0 0 0 75.755583 193.51429 A 43.774254 26.781717 0 0 0 119.50175 219.79485 A 43.774254 26.781717 0 0 0 163.27634 193.01302 A 43.774254 26.781717 0 0 0 156.98267 179.17924 A 16.253731 37.125 0 0 0 161.05994 154.59521 A 16.253731 37.125 0 0 0 159.23007 137.48877 A 39.526119 37.125 0 0 0 169.55606 112.48306 A 39.526119 37.125 0 0 0 159.49466 87.739864 A 27.335821 31.399254 0 0 0 167.33966 65.753609 A 27.335821 31.399254 0 0 0 140.00386 34.354492 z " />
  </g>
</svg>
